<svg width="17" height="17" viewBox="0 0 17 17" fill="none" xmlns="http://www.w3.org/2000/svg">
<path d="M5.46965 15.9327C5.28447 15.841 5.21292 15.675 5.2393 15.3983C5.2694 15.0824 5.33211 14.8659 5.48274 14.5578C5.59777 14.3226 5.65991 14.2385 5.88414 14.0146C6.10459 13.7945 6.19721 13.7257 6.43202 13.6076L6.7146 13.4654L6.56206 13.2131C5.41341 11.3134 4.7012 9.16157 4.45155 6.83667C4.34131 5.81004 4.32407 4.37268 4.41746 3.99435C4.61025 3.21332 5.23799 2.58285 6.01957 2.38528L6.28731 2.3176L6.36946 2.16737C6.66652 1.62415 7.18328 1.21747 7.77572 1.06068C8.03378 0.992384 8.57254 0.992384 8.8306 1.06068C9.43242 1.21996 9.98713 1.66593 10.2621 2.21153C10.3157 2.31808 10.3392 2.33592 10.4488 2.35384C10.5177 2.3651 10.6657 2.40599 10.7777 2.4447L10.9813 2.51509L11.7154 1.7853C12.3285 1.17573 12.4699 1.04943 12.574 1.01855C12.9034 0.920773 13.2082 1.22558 13.1103 1.55494C13.0796 1.65822 12.957 1.79699 12.392 2.36808L11.7107 3.05668L11.8668 3.28713C12.1647 3.72707 12.2268 3.97596 12.2475 4.81482C12.3108 7.37025 11.5774 10.3002 10.2451 12.8143C10.134 13.0239 10.0075 13.2562 9.96378 13.3307L9.88437 13.466L10.1633 13.6045C10.8533 13.9469 11.2908 14.5989 11.367 15.3983C11.3936 15.6768 11.3214 15.8428 11.1345 15.9333C11.0113 15.9929 10.9762 15.9936 8.30123 15.9936C5.61758 15.9936 5.59157 15.993 5.46965 15.9327ZM10.4129 15.0996C10.4129 15.0231 10.25 14.7729 10.1067 14.6293C9.91999 14.4423 9.75117 14.3448 9.49705 14.2771C9.27758 14.2187 7.33064 14.2182 7.11162 14.2765C6.86384 14.3425 6.68731 14.4447 6.49963 14.631C6.35644 14.7731 6.19339 15.0226 6.19339 15.0996C6.19339 15.1078 7.14279 15.1146 8.30316 15.1146C9.46353 15.1146 10.4129 15.1078 10.4129 15.0996ZM9.20527 12.8803C10.5128 10.5525 11.2157 8.19414 11.3623 5.64261L11.377 5.38621H8.30114H5.22523L5.24148 5.67191C5.40162 8.48863 6.03396 10.6158 7.38014 12.8662L7.67316 13.3561L8.30548 13.3563L8.93779 13.3565L9.20527 12.8803ZM11.3799 4.44058C11.3799 4.31002 11.2695 3.97918 11.1717 3.81641C10.941 3.43268 10.5025 3.18854 10.044 3.18854C9.85083 3.18854 9.69079 3.09628 9.62285 2.94575C9.5922 2.87783 9.52869 2.73655 9.4817 2.6318C9.32398 2.28011 9.00463 2.0145 8.61469 1.91067C8.02954 1.75486 7.37606 2.07111 7.12461 2.6318C7.07763 2.73655 7.01383 2.87842 6.98283 2.94705C6.91026 3.10772 6.76988 3.17278 6.40962 3.2127C5.77431 3.2831 5.33845 3.7157 5.23976 4.37381L5.21976 4.50714H8.29983H11.3799V4.44058Z" fill="black" stroke="black" stroke-width="0.20607"/>
</svg>
