<svg width="31" height="31" viewBox="0 0 31 31" fill="none" xmlns="http://www.w3.org/2000/svg">
<rect width="31" height="31" rx="6" fill="black"/>
<g clip-path="url(#clip0_1597_1020)">
<path d="M9.41552 24.1284C9.30661 23.9344 9.12189 23.6118 9.00503 23.4115C8.88817 23.2111 8.26842 22.1366 7.62781 21.0236C6.9872 19.9107 6.12657 18.4173 5.7153 17.705C5.30404 16.9927 4.83145 16.1731 4.66513 15.8837C4.4988 15.5944 4.08024 14.8684 3.735 14.2705C3.38976 13.6726 3.08235 13.1006 3.05188 12.9993C2.93314 12.6048 3.02507 11.7829 3.25775 11.159C3.60648 10.2238 4.31207 9.44239 5.22242 8.98306C6.99824 8.08708 9.16531 8.58589 10.3198 10.1564C10.4264 10.3014 10.6496 10.6568 10.8158 10.9462C11.6906 12.469 14.6333 17.5726 15.0747 18.3323C15.2363 18.6105 15.5928 19.2297 15.8668 19.7083C16.1407 20.1869 16.5169 20.837 16.7025 21.1531C16.8882 21.4692 17.0402 21.7507 17.0402 21.7788C17.0402 21.8068 16.8775 22.1128 16.6786 22.4587C16.4798 22.8046 16.1445 23.3877 15.9335 23.7543C15.7226 24.1209 15.5323 24.4267 15.5107 24.4339C15.4892 24.4411 15.2752 24.1047 15.0352 23.6864C14.5394 22.8221 13.6294 21.2422 12.8722 19.9309C11.0646 16.8006 9.05133 13.3076 8.58618 12.4947C8.12453 11.688 7.92902 11.4613 7.58177 11.3303C7.25237 11.2061 6.78498 11.229 6.46604 11.3851C6.08885 11.5696 5.75215 11.9762 5.74944 12.2503C5.74895 12.2998 5.8823 12.573 6.04576 12.8574C6.74059 14.0663 7.3103 15.0545 8.79361 17.624C9.2048 18.3363 9.75065 19.2834 10.0066 19.7285C10.2626 20.1737 10.6118 20.7798 10.7828 21.0753C10.9537 21.3709 11.1133 21.6559 11.1373 21.7088C11.1761 21.7938 11.1331 21.8881 10.7646 22.5272C10.5356 22.9245 10.203 23.5046 10.0255 23.8162C9.84801 24.1278 9.68272 24.4049 9.65817 24.432C9.62448 24.4691 9.56501 24.3947 9.41552 24.1284ZM21.2394 24.2541C21.0904 24.0043 20.7958 23.4948 19.5584 21.3474C19.1351 20.6129 18.2741 19.1194 17.6449 18.0287C17.0158 16.938 16.4284 15.9181 16.3396 15.7623C16.0889 15.3222 14.2328 12.1054 14.0908 11.8651C14.0212 11.7473 13.9647 11.6289 13.9651 11.6021C13.9656 11.5752 14.3023 10.971 14.7135 10.2594C15.1246 9.54773 15.4677 8.94673 15.4761 8.92381C15.4971 8.86569 15.4756 8.83177 16.0135 9.7725C17.5034 12.3782 21.3076 18.9667 21.3459 19.0078C21.3796 19.0439 21.5726 18.7399 22.1167 17.7936C23.3492 15.65 24.3136 13.9763 24.7949 13.1452C25.0485 12.7075 25.2559 12.3112 25.2559 12.2645C25.2559 12.1022 25.0837 11.815 24.8682 11.6181C24.5007 11.2822 23.9221 11.1575 23.4607 11.3147C23.0694 11.448 22.9028 11.6603 22.1134 13.0307C21.716 13.7206 21.3818 14.2851 21.3706 14.285C21.3595 14.285 21.2974 14.1894 21.2326 14.0726C21.1678 13.9557 20.8442 13.3913 20.5135 12.8182C20.1827 12.2452 19.8923 11.7328 19.8681 11.6796C19.8292 11.5943 19.8633 11.5146 20.1586 11.0015C20.3426 10.6817 20.5828 10.2975 20.6924 10.1476C21.1009 9.58878 21.7774 9.07278 22.4332 8.81989C22.9907 8.60489 23.2347 8.56289 23.9203 8.56392C24.4664 8.56468 24.5985 8.57848 24.9405 8.67012C26.4164 9.06561 27.5061 10.1401 27.8697 11.5584C28.0001 12.067 28.0398 12.7281 27.956 12.9957C27.904 13.1617 26.6131 15.4393 25.1952 17.8668C24.98 18.2353 22.0935 23.2438 21.6308 24.0517L21.3799 24.4897L21.2394 24.2541Z" fill="white"/>
</g>
<defs>
<clipPath id="clip0_1597_1020">
<rect width="25" height="15.9496" fill="white" transform="translate(3 8.54004)"/>
</clipPath>
</defs>
</svg>
