<svg width="17" height="17" viewBox="0 0 17 17" fill="none" xmlns="http://www.w3.org/2000/svg">
<path d="M13.3477 5.57812C13.2504 6.9285 12.2486 7.96875 11.1562 7.96875C10.0639 7.96875 9.06046 6.92883 8.96484 5.57812C8.86523 4.1733 9.8404 3.1875 11.1562 3.1875C12.4721 3.1875 13.4473 4.19887 13.3477 5.57812Z" stroke="black" stroke-width="1.0625" stroke-linecap="round" stroke-linejoin="round"/>
<path d="M11.1562 10.0938C8.9924 10.0938 6.91156 11.1685 6.39027 13.2617C6.32121 13.5386 6.49486 13.8125 6.77941 13.8125H15.5334C15.818 13.8125 15.9906 13.5386 15.9226 13.2617C15.4013 11.135 13.3204 10.0938 11.1562 10.0938Z" stroke="black" stroke-width="1.0625" stroke-miterlimit="10"/>
<path d="M6.64068 6.17379C6.56299 7.25223 5.7535 8.10156 4.88092 8.10156C4.00834 8.10156 3.19752 7.25256 3.12115 6.17379C3.0418 5.05186 3.82971 4.25 4.88092 4.25C5.93213 4.25 6.72004 5.07244 6.64068 6.17379Z" stroke="black" stroke-width="1.0625" stroke-linecap="round" stroke-linejoin="round"/>
<path d="M6.83991 10.1602C6.24059 9.88562 5.58051 9.78003 4.88092 9.78003C3.15436 9.78003 1.49089 10.6383 1.07419 12.3101C1.0194 12.5312 1.15819 12.75 1.3853 12.75H5.11335" stroke="black" stroke-width="1.0625" stroke-miterlimit="10" stroke-linecap="round"/>
</svg>
