<svg width="17" height="17" viewBox="0 0 17 17" fill="none" xmlns="http://www.w3.org/2000/svg">
<path d="M9.21121 8.20114C9.17468 8.13462 9.12909 8.0735 9.07574 8.01952L8.4668 7.41888C8.40425 7.3552 8.33039 7.30374 8.24899 7.26714C8.12089 7.21 7.9785 7.19297 7.84054 7.21828C7.70257 7.24358 7.5755 7.31004 7.47602 7.40892C7.26484 7.61677 6.87836 7.99595 6.18109 8.68491C4.84766 10.0041 2.3717 12.2151 1.25209 13.158C1.19568 13.2052 1.14969 13.2636 1.11702 13.3295C1.08436 13.3954 1.06574 13.4674 1.06234 13.5409C1.05893 13.6144 1.07083 13.6877 1.09726 13.7564C1.12369 13.825 1.16409 13.8874 1.2159 13.9396L2.51082 15.2488C2.56297 15.3011 2.62537 15.3421 2.69411 15.3691C2.76285 15.3962 2.83643 15.4087 2.91024 15.4059C2.98405 15.4031 3.05649 15.3851 3.123 15.353C3.18952 15.3209 3.24867 15.2754 3.29674 15.2193C4.2676 14.0781 6.4942 11.6001 7.81236 10.2976C8.48938 9.63153 8.86889 9.24903 9.08371 9.03786C9.19025 8.92952 9.25992 8.79034 9.28281 8.64013C9.3057 8.48991 9.28065 8.3363 9.21121 8.20114ZM15.8854 6.6738L14.7462 5.54489C14.7288 5.52752 14.708 5.51388 14.6852 5.5048C14.6624 5.49572 14.6379 5.4914 14.6134 5.4921C14.5888 5.49169 14.5645 5.49614 14.5417 5.5052C14.5189 5.51426 14.4981 5.52775 14.4805 5.54489C14.4396 5.5861 14.3896 5.61733 14.3347 5.63615C14.2797 5.65498 14.2211 5.6609 14.1635 5.65347C14.0147 5.6372 13.8563 5.59105 13.7541 5.4921C13.5216 5.26433 13.7903 4.81608 13.5857 4.52921C13.3521 4.21528 13.096 3.91877 12.8194 3.64202C12.585 3.4096 11.6636 2.53071 10.1117 1.89786C9.61643 1.69497 9.08633 1.59076 8.55113 1.59107C7.67623 1.59107 7.00354 1.98153 6.75816 2.20566C6.56293 2.3823 6.35973 2.66286 6.35973 2.66286C6.47707 2.62008 6.59694 2.5846 6.71865 2.55661C6.97248 2.50222 7.23293 2.48555 7.49162 2.50714C8.00826 2.54997 8.63082 2.79235 8.96484 3.05466C9.50307 3.4863 9.73449 4.0637 9.77068 4.80878C9.79725 5.36294 9.265 6.06253 8.75998 6.63296C8.71555 6.68311 8.69214 6.74845 8.69461 6.81541C8.69709 6.88237 8.72525 6.94581 8.77326 6.99255L9.4785 7.69745C9.52763 7.74597 9.59372 7.77346 9.66277 7.77408C9.73181 7.7747 9.79839 7.7484 9.84838 7.70077C10.3109 7.2522 10.8807 6.75548 11.2037 6.55659C11.5268 6.35771 11.7874 6.30159 11.9126 6.28798C12.1586 6.26416 12.4058 6.31779 12.6198 6.44138C12.6575 6.4627 12.692 6.48931 12.7221 6.5204C12.9366 6.73821 12.9237 7.09415 12.7055 7.30864L12.6391 7.3714C12.6218 7.38839 12.6081 7.40865 12.5988 7.431C12.5894 7.45334 12.5846 7.47733 12.5846 7.50155C12.5846 7.52578 12.5894 7.54977 12.5988 7.57211C12.6081 7.59446 12.6218 7.61472 12.6391 7.63171L13.7783 8.76062C13.7958 8.77783 13.8165 8.79135 13.8394 8.80037C13.8622 8.80938 13.8866 8.8137 13.9111 8.81308C13.9606 8.81378 14.0083 8.79493 14.0439 8.76062L15.8854 6.93942C15.9193 6.90354 15.9382 6.85601 15.9382 6.80661C15.9382 6.75721 15.9193 6.70968 15.8854 6.6738Z" stroke="black" stroke-width="1.0625" stroke-linecap="round" stroke-linejoin="round"/>
</svg>
