<svg width="17" height="17" viewBox="0 0 17 17" fill="none" xmlns="http://www.w3.org/2000/svg">
<path d="M2.65625 7.03906V14.875C2.65625 15.0159 2.71222 15.151 2.81185 15.2507C2.91148 15.3503 3.0466 15.4062 3.1875 15.4062H6.375V10.8906C6.375 10.6793 6.45896 10.4766 6.6084 10.3271C6.75784 10.1777 6.96053 10.0938 7.17188 10.0938H9.82812C10.0395 10.0938 10.2422 10.1777 10.3916 10.3271C10.541 10.4766 10.625 10.6793 10.625 10.8906V15.4062H13.8125C13.9534 15.4062 14.0885 15.3503 14.1882 15.2507C14.2878 15.151 14.3438 15.0159 14.3438 14.875V7.03906" stroke="black" stroke-width="1.0625" stroke-linecap="round" stroke-linejoin="round"/>
<path d="M15.9375 8.50003L8.86158 1.72659C8.69557 1.55128 8.30742 1.54929 8.13842 1.72659L1.0625 8.50003M13.2812 5.94339V2.12503H11.6875V4.41605" stroke="black" stroke-width="1.0625" stroke-linecap="round" stroke-linejoin="round"/>
</svg>
