<svg width="1140" height="1140" viewBox="0 0 1140 1140" fill="none" xmlns="http://www.w3.org/2000/svg">
<rect width="1140" height="1140" fill="black"/>
<g clip-path="url(#clip0_1190_885)">
<path d="M410.04 770.733C407.171 765.622 402.304 757.121 399.224 751.842C396.145 746.564 379.816 718.251 362.937 688.926C346.057 659.601 323.381 620.252 312.545 601.483C301.708 582.715 289.256 561.121 284.874 553.497C280.491 545.872 269.463 526.744 260.366 510.991C251.27 495.237 243.17 480.165 242.367 477.497C239.238 467.101 241.661 445.446 247.791 429.006C256.98 404.366 275.571 383.776 299.558 371.673C346.348 348.065 403.448 361.208 433.866 402.588C436.675 406.409 442.556 415.774 446.936 423.399C469.985 463.523 547.522 597.995 559.152 618.012C563.411 625.343 572.802 641.659 580.022 654.269C587.241 666.879 597.151 684.01 602.044 692.338C606.936 700.666 610.939 708.084 610.939 708.822C610.939 709.561 606.653 717.623 601.413 726.738C596.174 735.853 587.34 751.215 581.781 760.875C576.223 770.534 571.21 778.593 570.642 778.782C570.073 778.972 564.434 770.109 558.111 759.086C545.047 736.314 521.071 694.686 501.119 660.134C453.492 577.655 400.445 485.619 388.188 464.201C376.024 442.943 370.873 436.972 361.723 433.521C353.044 430.248 340.729 430.852 332.326 434.963C322.387 439.825 313.515 450.537 313.444 457.761C313.431 459.065 316.945 466.263 321.252 473.757C339.56 505.608 354.571 531.648 393.654 599.351C404.488 618.119 418.871 643.072 425.615 654.802C432.359 666.532 441.562 682.501 446.066 690.288C450.569 698.075 454.773 705.586 455.408 706.978C456.428 709.218 455.297 711.704 445.588 728.543C439.552 739.012 430.788 754.295 426.112 762.506C421.436 770.717 417.081 778.018 416.434 778.731C415.546 779.709 413.979 777.749 410.04 770.733ZM721.585 774.044C717.659 767.463 709.895 754.039 677.292 697.457C666.139 678.103 643.451 638.753 626.874 610.014C610.297 581.276 594.82 554.403 592.482 550.297C585.876 538.702 536.968 453.944 533.229 447.612C531.395 444.507 529.905 441.388 529.917 440.68C529.929 439.973 538.801 424.053 549.634 405.302C560.466 386.551 569.509 370.716 569.727 370.112C570.282 368.58 569.715 367.687 583.889 392.474C623.145 461.13 723.38 634.728 724.39 635.811C725.278 636.763 730.364 628.751 744.699 603.82C777.175 547.338 802.585 503.238 815.268 481.341C821.948 469.808 827.414 459.366 827.414 458.136C827.414 453.857 822.877 446.292 817.199 441.103C807.515 432.252 792.27 428.966 780.112 433.109C769.802 436.622 765.411 442.215 744.612 478.324C734.141 496.501 725.335 511.374 725.042 511.373C724.748 511.373 723.112 508.854 721.405 505.775C719.697 502.696 711.171 487.824 702.456 472.725C693.742 457.626 686.089 444.125 685.451 442.724C684.426 440.475 685.326 438.376 693.106 424.856C697.956 416.43 704.284 406.306 707.17 402.358C717.934 387.633 735.76 374.037 753.038 367.374C767.728 361.709 774.156 360.602 792.223 360.629C806.612 360.649 810.092 361.013 819.102 363.427C857.99 373.848 886.704 402.161 896.285 439.531C899.72 452.93 900.765 470.35 898.557 477.4C897.187 481.774 863.174 541.787 825.814 605.749C820.143 615.457 744.089 747.424 731.896 768.713L725.287 780.251L721.585 774.044Z" fill="white"/>
</g>
<defs>
<clipPath id="clip0_1190_885">
<rect width="658.717" height="420.251" fill="white" transform="translate(241 360)"/>
</clipPath>
</defs>
</svg>
