<svg width="24" height="16" viewBox="0 0 24 16" fill="none" xmlns="http://www.w3.org/2000/svg">
<g clip-path="url(#clip0_1448_9212)">
<path d="M6.04562 15.0373C5.94299 14.8545 5.76892 14.5504 5.6588 14.3617C5.54868 14.1729 4.96466 13.1603 4.36099 12.1115C3.75731 11.0627 2.94631 9.65539 2.55875 8.98416C2.17119 8.31293 1.72586 7.54063 1.56912 7.26794C1.41238 6.99525 1.01796 6.31116 0.69262 5.74774C0.367285 5.18432 0.0776063 4.64527 0.0488908 4.54985C-0.0630076 4.17804 0.0236278 3.40358 0.242893 2.81561C0.571515 1.93438 1.23642 1.19798 2.09429 0.765139C3.76771 -0.0791908 5.80984 0.390862 6.89772 1.87079C6.99818 2.00745 7.20854 2.34238 7.36519 2.61507C8.18951 4.05008 10.9626 8.85939 11.3785 9.5753C11.5308 9.8375 11.8667 10.421 12.1249 10.872C12.3831 11.323 12.7375 11.9357 12.9125 12.2335C13.0875 12.5314 13.2307 12.7967 13.2307 12.8231C13.2307 12.8495 13.0773 13.1378 12.89 13.4638C12.7026 13.7898 12.3866 14.3392 12.1878 14.6847C11.989 15.0302 11.8098 15.3184 11.7894 15.3251C11.7691 15.3319 11.5674 15.0149 11.3413 14.6207C10.8741 13.8063 10.0166 12.3175 9.30299 11.0818C7.59963 8.13196 5.70244 4.84035 5.2641 4.07433C4.82906 3.31408 4.64483 3.10051 4.3176 2.97709C4.00719 2.86001 3.56675 2.88162 3.2662 3.02866C2.91076 3.20256 2.59347 3.58567 2.59092 3.84403C2.59046 3.89067 2.71611 4.1481 2.87015 4.4161C3.52492 5.55525 4.06179 6.48654 5.45957 8.90788C5.84706 9.57911 6.36144 10.4715 6.60264 10.8911C6.84384 11.3106 7.17297 11.8817 7.33405 12.1602C7.49512 12.4387 7.64547 12.7073 7.66816 12.7571C7.70466 12.8372 7.66418 12.9261 7.31696 13.5284C7.10111 13.9028 6.78766 14.4494 6.62042 14.743C6.45318 15.0367 6.29742 15.2978 6.27428 15.3233C6.24253 15.3583 6.1865 15.2882 6.04562 15.0373ZM17.1878 15.1557C17.0474 14.9203 16.7697 14.4402 15.6037 12.4166C15.2048 11.7244 14.3934 10.3171 13.8005 9.28927C13.2077 8.26144 12.6542 7.30036 12.5705 7.15352C12.3343 6.73881 10.5851 3.70749 10.4514 3.48104C10.3858 3.36999 10.3325 3.25844 10.3329 3.23314C10.3334 3.20784 10.6507 2.63846 11.0381 1.96786C11.4255 1.29725 11.7489 0.730902 11.7567 0.709299C11.7766 0.65453 11.7563 0.62257 12.2632 1.50906C13.6672 3.96451 17.252 10.1732 17.2881 10.2119C17.3199 10.2459 17.5018 9.95938 18.0145 9.06771C19.176 7.04769 20.0847 5.47046 20.5383 4.68735C20.7772 4.27487 20.9727 3.90141 20.9727 3.85742C20.9727 3.7044 20.8105 3.43382 20.6074 3.24824C20.2611 2.93171 19.7158 2.8142 19.281 2.96236C18.9123 3.08799 18.7552 3.28802 18.0114 4.57944C17.6369 5.22955 17.3219 5.76144 17.3114 5.76142C17.301 5.76141 17.2424 5.67131 17.1814 5.56121C17.1203 5.45111 16.8154 4.9192 16.5037 4.37919C16.192 3.83918 15.9184 3.35634 15.8955 3.30621C15.8589 3.22579 15.891 3.15073 16.1693 2.66718C16.3427 2.36583 16.5691 2.00376 16.6723 1.86257C17.0572 1.33593 17.6948 0.849684 18.3127 0.611374C18.8381 0.408766 19.068 0.369193 19.7142 0.370158C20.2288 0.370879 20.3532 0.383881 20.6755 0.470234C22.0663 0.842921 23.0932 1.85551 23.4359 3.19204C23.5587 3.67125 23.5961 4.29426 23.5171 4.54638C23.4681 4.70282 22.2517 6.84916 20.9155 9.13671C20.7127 9.48391 17.9927 14.2037 17.5566 14.965L17.3202 15.3777L17.1878 15.1557Z" fill="black"/>
</g>
<defs>
<clipPath id="clip0_1448_9212">
<rect width="23.5586" height="15.03" fill="white" transform="translate(0 0.347656)"/>
</clipPath>
</defs>
</svg>
