<svg width="17" height="17" viewBox="0 0 17 17" fill="none" xmlns="http://www.w3.org/2000/svg">
<g clip-path="url(#clip0_1287_3794)">
<path d="M1.90884 1.58508L14.1419 13.8181C14.374 14.0502 14.5044 14.3651 14.5044 14.6933C14.5044 15.0216 14.374 15.3364 14.1419 15.5686C13.9097 15.8006 13.5949 15.931 13.2666 15.931C12.9384 15.931 12.6236 15.8006 12.3914 15.5686L9.40312 12.5288C9.20756 12.3303 9.09786 12.0628 9.09765 11.7841V11.6005C9.09768 11.4598 9.06975 11.3204 9.01549 11.1906C8.96123 11.0607 8.88171 10.943 8.78156 10.8441L8.39574 10.4878C8.26476 10.367 8.10549 10.281 7.93259 10.2378C7.75968 10.1947 7.57869 10.1957 7.40628 10.2408C7.13441 10.3118 6.8487 10.3104 6.57752 10.2368C6.30633 10.1633 6.0591 10.0201 5.86035 9.82145L3.0238 6.98458C1.34107 5.30184 0.721831 2.76081 1.90884 1.58508Z" stroke="black" stroke-width="1.0625" stroke-linejoin="round"/>
<path d="M13.2812 1.0625L10.7163 3.62744C10.5189 3.82477 10.3624 4.05905 10.2555 4.3169C10.1487 4.57475 10.0937 4.85112 10.0937 5.13021V5.62361C10.0938 5.69342 10.08 5.76255 10.0533 5.82704C10.0266 5.89153 9.9874 5.95013 9.93802 5.99947L9.56249 6.375M10.625 7.4375L11.0005 7.06197C11.0499 7.01259 11.1085 6.97343 11.173 6.94671C11.2374 6.91999 11.3066 6.90624 11.3764 6.90625H11.8698C12.1489 6.90625 12.4252 6.85127 12.6831 6.74445C12.9409 6.63763 13.1752 6.48107 13.3725 6.28369L15.9375 3.71875M14.6094 2.39062L11.9531 5.04688M6.64062 12.2188L3.3296 15.5484C3.08054 15.7973 2.74279 15.9372 2.39062 15.9372C2.03844 15.9372 1.70069 15.7973 1.45163 15.5484C1.20265 15.2993 1.06277 14.9615 1.06277 14.6094C1.06277 14.2572 1.20265 13.9195 1.45163 13.6704L4.24999 10.8906" stroke="black" stroke-width="1.0625" stroke-linecap="round" stroke-linejoin="round"/>
</g>
<defs>
<clipPath id="clip0_1287_3794">
<rect width="17" height="17" fill="black"/>
</clipPath>
</defs>
</svg>
